<?xml version="1.0"?>
<svg width="180" height="180" xmlns="http://www.w3.org/2000/svg">
 <g>
  <title>background</title>
  <rect x="-1" y="-1" width="182" height="182" id="canvas_background" fill="none"/>
 </g>

 <g>
  <title>Layer 1</title>
  <path fill="#485566" d="m135.899994,99c-1.5,0 -3,-0.199997 -4.400009,-0.699997l0,19.299995c0,3.300003 -1.799988,6.400002 -4.599998,8l-5.199989,3.000008c-0.400009,-1.100006 -0.800011,-1.700005 -1.20002,-1.700005c-1,0 -2.099991,0 -3.199989,0.099998c-1.099998,0 -2.199997,0.099998 -3.299995,0.199997c-0.400002,-0.699997 -0.900002,-1.399994 -1.5,-2.099998c-0.600006,-0.599998 -1.200005,-1.299995 -1.900002,-1.799995c0.199997,-1 0.400002,-2.100006 0.599998,-3.200005c0.199997,-1.099998 0.400002,-2.099998 0.400002,-3.199997c0,-0.5 -0.599998,-1 -1.800003,-1.5c-1.199997,-0.599998 -2.599998,-1.099998 -4.099998,-1.599998c-1.5,-0.5 -2.900002,-0.900002 -4.300003,-1.200005c-1.299995,-0.299995 -2.099998,-0.5 -2.299995,-0.5c-0.300003,0 -0.599998,0.300003 -0.900002,0.800003c-0.400002,0.599998 -0.800003,1.199997 -1.199997,1.900002c-0.400002,0.699997 -0.800003,1.399994 -1.100006,2.099998c-0.299995,0.699997 -0.5,1.199997 -0.599998,1.400002c-1.799995,0.299995 -3.5,0.699997 -5.099998,1.299995c-0.199997,-0.199997 -0.5,-0.5 -1.099998,-1c-0.599991,-0.5 -1.099991,-1 -1.700005,-1.400002c-0.599998,-0.5 -1.099998,-0.899994 -1.699997,-1.299995c-0.599998,-0.400002 -0.900002,-0.599998 -1.099998,-0.599998l-0.5,0.299995c-0.300003,0.300003 -0.900002,0.800003 -1.900002,1.700005c-1,0.799995 -2.099998,1.699997 -3.199997,2.699997c-1.100006,1 -2.100006,1.900002 -2.900002,2.800003c-0.800003,0.899994 -1.200005,1.399994 -1.200005,1.599998s0.200005,0.599998 0.5,1.199997c0.300003,0.599998 0.700005,1.200005 1.100006,1.900002c0.399994,0.600006 0.799995,1.300003 1.199997,1.900009c0.400002,0.599991 0.699997,1 0.900002,1.099991c-0.400002,1 -0.800003,1.800003 -1,2.5c-0.200005,0.699997 -0.5,1.600006 -0.599998,2.600006c-0.300003,0.099991 -0.800003,0.199997 -1.5,0.5c-0.700005,0.199997 -1.5,0.5 -2.200005,0.799988c-0.799995,0.300003 -1.5,0.700012 -2.099998,1c-0.599998,0.300003 -0.900002,0.600006 -0.900002,0.900009c0,0.199997 0.099998,0.800003 0.300003,2c0.199997,1.099991 0.5,2.399994 0.799995,3.800003c0.300003,1.399994 0.600006,2.699997 0.900002,3.899994c0.300003,1.199997 0.400002,2 0.5,2.399994c0.099998,0.5 0.300003,0.700012 0.599998,0.700012c0.300003,0 0.600006,0 1,0c1,0 2,0 3,-0.100006c1,-0.100006 2,-0.100006 3,-0.199997c0.200005,0.300003 0.400002,0.599991 0.600006,0.899994l-0.200005,0.100006c-2.799995,1.599991 -6.5,1.599991 -9.299995,0l-27.500004,-15.800003c0,-0.300003 0.100002,-0.5 0.100002,-0.800003c0.099998,-1.199997 0.200001,-2 0.200001,-2.5c1.899998,-0.599976 3.899998,-1.5 5.899998,-2.5c0.299999,0.199997 0.799999,0.699997 1.700001,1.400009c0.900002,0.699997 1.799999,1.399994 2.799999,2.199997c1,0.800003 1.900002,1.5 2.700001,2.099991c0.799999,0.600006 1.299999,0.900009 1.400002,0.900009c0.299999,0 0.899998,-0.5 2,-1.400009c1,-0.899994 2.199997,-2 3.399998,-3.199997c1.199997,-1.199997 2.300003,-2.299988 3.199997,-3.399994c0.900002,-1.100006 1.400002,-1.800003 1.400002,-2l-0.099998,-0.700005c-1.199997,-1.299995 -2.300003,-2.599998 -3.199997,-4c-1,-1.299995 -2.000008,-2.699997 -3.000004,-4.099998c0.999996,-2 1.899998,-4 2.500004,-5.900002c0.399994,-0.099998 1.199997,-0.199997 2.399994,-0.299995c1.300003,-0.100006 2.5,-0.200005 3.800003,-0.5c1.300003,-0.200005 2.400002,-0.5 3.400002,-0.800003c1,-0.300003 1.5,-0.699997 1.5,-1.099998l0,-12c0,-0.400002 -0.5,-0.700005 -1.5,-1c-1,-0.300003 -2.099991,-0.5 -3.400002,-0.800003c-1.300003,-0.199997 -2.5,-0.400002 -3.699997,-0.599998c-1.200005,-0.099998 -2,-0.199997 -2.5,-0.300003c-0.700005,-2.399994 -1.599998,-4.5 -2.600002,-6.199997c0.200001,-0.300003 0.599998,-0.800003 1.299999,-1.699997c0.699997,-0.900002 1.400002,-1.800003 2.099998,-2.800003c0.700005,-1 1.400002,-1.900002 2,-2.699997c0.599998,-0.800003 0.900002,-1.300003 0.900002,-1.5c0,-0.300003 -0.5,-0.900002 -1.400002,-2c-1,-1.100006 -2,-2.200005 -3.199997,-3.300003c-1.200001,-1.199997 -2.299999,-2.199997 -3.299999,-3.199997c-1,-1 -1.700001,-1.400002 -1.800003,-1.400002l-0.5,0.299995c-1.299999,1.100006 -2.599998,2.100006 -4.099998,3.100006c-1.400002,1 -2.799999,2 -4.200001,3.099998c-1.799999,-1 -3.799999,-1.800003 -5.799999,-2.400002c-0.099991,-0.400002 -0.200001,-1.199997 -0.299999,-2.5c-0.100002,-1.300003 -0.299992,-2.599998 -0.5,-3.900002c-0.200001,-1.300003 -0.400002,-2.5 -0.799992,-3.5c-0.300011,-1.099998 -0.700008,-1.599998 -1,-1.599998l-11.799999,0c-0.4,0 -0.799999,0.5 -1.099991,1.599998c-0.300009,1.099998 -0.5,2.199997 -0.700008,3.5c-0.200001,1.300003 -0.299992,2.599998 -0.5,3.900002c-0.1,1.300003 -0.200001,2.099998 -0.200001,2.5c-2.099991,0.5 -4.099991,1.400002 -6,2.5c-0.1,-0.099998 -0.299999,-0.300003 -0.6,-0.5l0,-11.800003c0,-3.299995 1.800001,-6.399998 4.6,-7.999996l46,-26.700001c1.400009,-0.799999 3,-1.299999 4.699997,-1.299999c1.600014,0 3.200012,0.4 4.600014,1.199999l15.899986,9.199999c0.5,-3.399998 2.300003,-6.5 4.900002,-8.699999l-15.900002,-9.1c-2.899986,-1.699999 -6.199997,-2.599998 -9.599998,-2.599998c-3.400002,0 -6.699997,0.9 -9.699997,2.599998l-46.000002,26.700001c-5.9,3.400002 -9.599999,9.799999 -9.599999,16.699997l0.099999,53.100006c0,6.899994 3.700001,13.300003 9.700001,16.699997l46.099997,26.5c2.900002,1.699997 6.200005,2.600006 9.600014,2.600006c3.399986,0 6.699989,-0.900009 9.699989,-2.600006l46,-26.699997c5.899994,-3.400009 9.600006,-9.800003 9.600006,-16.700005l0,-19.699997c-1.800003,0.699997 -3.700012,1.099998 -5.700012,1.099998zm-99.899994,17c-1.700001,0 -3.200001,-0.300003 -4.700001,-1c-1.5,-0.599998 -2.799999,-1.5 -3.9,-2.599998c-1.1,-1.099998 -2,-2.400002 -2.6,-3.900002c-0.599998,-1.5 -1,-3.099998 -1,-4.699997c0,-3.400002 1.200001,-6.300003 3.5,-8.700005c2.400002,-2.400002 5.200001,-3.599998 8.600002,-3.599998c1.699997,0 3.199997,0.300003 4.699997,1c1.5,0.699997 2.800003,1.5 3.900002,2.599998c1.099998,1.099998 2,2.400002 2.599998,3.900002c0.600002,1.5 0.900002,3.099998 0.900002,4.800003c0,1.699997 -0.299999,3.299995 -0.900002,4.699997c-0.599998,1.5 -1.5,2.800003 -2.599998,3.900002c-1.099998,1.099998 -2.400002,2 -3.900002,2.599998c-1.399998,0.699997 -2.899998,1 -4.599998,1zm56.400002,29.600006c-0.300003,-0.199997 -0.599998,-0.5 -0.800003,-0.800003c-1.5,-1.599991 -2.299995,-3.5 -2.299995,-5.799988c0,-2.200012 0.799995,-4.100006 2.299995,-5.600006c1.599998,-1.600006 3.400002,-2.300003 5.599998,-2.300003c2.300003,0 4.200005,0.800003 5.700005,2.300003c1.299995,1.300003 2.099998,2.899994 2.299995,4.699997l-12.799995,7.5z" id="svg_19"/>
  <g id="svg_20">
   <path fill-rule="evenodd" clip-rule="evenodd" fill="#F26431" d="m171.899994,41.900002c0,-4.400002 -2.400009,-8.5 -6.199997,-10.700001l-23.699997,-13.6c-3.800003,-2.200001 -8.600006,-2.1 -12.300003,0l-23.699997,13.699999c-3.800003,2.200001 -6.199997,6.299999 -6.099998,10.700001l0.099998,27.300003c0,4.399994 2.400002,8.5 6.199997,10.699997l23.699997,13.599998c1.900009,1.099998 4,1.599998 6.100006,1.599998c2.199997,0 4.300003,-0.599998 6.199997,-1.699997l23.600006,-13.5c3.800003,-2.199997 6.199997,-6.300003 6.199997,-10.699997l-0.100006,-27.400002zm-11.199997,29.5l-23.699997,13.699997c-0.699997,0.400002 -1.600006,0.400002 -2.300003,0l-23.699997,-13.699997c-0.699997,-0.400002 -1.199997,-1.200005 -1.199997,-2l-0.100006,-27.400002c0,-0.799999 0.400002,-1.599998 1.200005,-2l23.700005,-13.700001c0.399994,-0.199999 0.799988,-0.299999 1.199997,-0.299999c0.399994,0 0.800003,0.1 1.199997,0.299999l23.699997,13.600002c0.699997,0.399998 1.199997,1.199997 1.199997,2l0.100006,27.299995c-0.100006,1 -0.5,1.700005 -1.300003,2.200005z" id="svg_21"/>
   <path fill-rule="evenodd" clip-rule="evenodd" fill="#F26431" d="m155.699997,51.900002c-0.199997,-1.200001 -0.399994,-2.200001 -0.699997,-3.100002c-0.300003,-0.899998 -0.600006,-1.399998 -0.800003,-1.399998c-0.800003,0 -1.599991,-0.100002 -2.399994,-0.100002c-0.800003,0 -1.699997,0 -2.5,0c-0.300003,-0.599998 -0.699997,-1.099998 -1.100006,-1.599998c-0.399994,-0.5 -0.899994,-1 -1.399994,-1.400002c0.199997,-0.799999 0.399994,-1.599998 0.599991,-2.399998c0.200012,-0.800003 0.400009,-1.600002 0.400009,-2.400002c0,-0.400002 -0.400009,-0.799999 -1.300003,-1.200001c-0.899994,-0.5 -1.899994,-0.899998 -3,-1.400002c-1.100006,-0.399998 -2.199997,-0.799999 -3.199997,-1.099998c-1,-0.299999 -1.600006,-0.399998 -1.699997,-0.399998c-0.200012,0 -0.400009,0.199997 -0.700012,0.599998c-0.299988,0.400002 -0.599991,0.899998 -1,1.400002c-0.299988,0.5 -0.599991,1 -0.899994,1.5c-0.300003,0.5 -0.399994,0.899998 -0.5,1.099998c-1.399994,0.200001 -2.699997,0.400002 -3.899994,0.799999c-0.100006,-0.200001 -0.400009,-0.399998 -0.800003,-0.799999c-0.400009,-0.400002 -0.800003,-0.799999 -1.199997,-1.200001c-0.400009,-0.399998 -0.800003,-0.799999 -1.200012,-1.099998c-0.399994,-0.299999 -0.699997,-0.5 -0.799973,-0.5l-0.400024,0.200001c-0.199997,0.199997 -0.699997,0.599998 -1.5,1.199997c-0.800011,0.600002 -1.599983,1.200001 -2.5,1.900002c-0.899994,0.700001 -1.599983,1.299999 -2.300011,2c-0.699989,0.599998 -1,1 -1,1.200001c0,0.099998 0.100014,0.399998 0.300011,0.899998c0.199989,0.5 0.5,1 0.800003,1.5c0.300003,0.5 0.600014,1 0.899986,1.400002c0.300011,0.5 0.5,0.799999 0.600014,0.900002c-0.399986,0.699997 -0.699997,1.299999 -0.899986,1.799999c-0.200027,0.5 -0.400017,1.200001 -0.600014,2c-0.199997,0.099998 -0.600014,0.200001 -1.100014,0.299999c-0.5,0.099998 -1.099983,0.299999 -1.699989,0.5c-0.599998,0.200001 -1.099998,0.400002 -1.599998,0.700001c-0.5,0.200001 -0.699997,0.399998 -0.699997,0.599998c0,0.100002 0,0.600002 0.199997,1.5c0.099998,0.900002 0.300003,1.799999 0.5,2.900002c0.200005,1.099998 0.400002,2 0.5,3c0.200005,0.899998 0.300003,1.599998 0.300003,1.799999c0,0.400002 0.199997,0.599998 0.400002,0.599998c0.199997,0 0.5,0 0.699997,0c0.699997,0 1.5,0.099998 2.199997,0.099998c0.800003,0 1.5,0 2.300003,0c0.300003,0.599998 0.699997,1.100006 1.100014,1.599998c0.399986,0.500008 0.799988,1 1.399986,1.400002c-0.199997,0.700005 -0.399986,1.5 -0.599998,2.300003c-0.200005,0.800003 -0.299988,1.599998 -0.400002,2.400002c0,0.299995 0.400002,0.699997 1.300003,1.199997c0.899994,0.5 1.899994,0.900002 3,1.400002c1.099991,0.400002 2.099991,0.800003 3.099991,1.099998c1,0.300003 1.5,0.5 1.700012,0.5c0.199997,0 0.399994,-0.199997 0.699997,-0.599998c0.300003,-0.400002 0.599991,-0.900002 0.899994,-1.300003c0.300003,-0.5 0.600006,-1 0.900009,-1.5c0.299988,-0.5 0.399994,-0.899994 0.5,-1.099998c1.399994,-0.199997 2.699997,-0.400002 4,-0.799995c0.099991,0.099998 0.399994,0.399994 0.799988,0.799995c0.400009,0.400002 0.800003,0.800003 1.200012,1.200005c0.399994,0.399994 0.799988,0.799995 1.199997,1.099998c0.399994,0.299995 0.699997,0.5 0.800003,0.5l0.399994,-0.200005c0.199997,-0.199997 0.699997,-0.599998 1.5,-1.299995c0.800003,-0.599998 1.600006,-1.200005 2.5,-1.900002c0.899994,-0.699997 1.600006,-1.300003 2.300003,-2c0.699997,-0.599998 1,-1 1,-1.099998c0,-0.200005 -0.100006,-0.5 -0.300003,-0.900002c-0.199997,-0.5 -0.5,-0.900002 -0.699997,-1.400002c-0.300003,-0.5 -0.600006,-1 -0.900009,-1.400002c-0.299988,-0.399998 -0.5,-0.799995 -0.5,-0.999996c0.5,-1.100002 1,-2.299999 1.300003,-3.600002c0.199997,-0.099998 0.600006,-0.199997 1.199997,-0.399998c0.600006,-0.200001 1.100006,-0.400002 1.700012,-0.600002c0.5,-0.199997 1.099991,-0.399998 1.5,-0.599998c0.5,-0.200001 0.699997,-0.400002 0.699997,-0.599998c0,-0.300003 0,-1 -0.100006,-2c-0.199997,-1.200001 -0.300003,-2.300003 -0.5,-3.5zm-15.599991,8.399998c-1.300003,1.100002 -2.699997,1.600002 -4.399994,1.5c-1.699997,-0.099998 -3.100006,-0.799999 -4.199997,-2c-1.100006,-1.299999 -1.600006,-2.700001 -1.5,-4.399998c0.099991,-1.700001 0.699997,-3 2,-4.200001c1.199997,-1.100002 2.699997,-1.600002 4.299988,-1.5c1.700012,0.099998 3.100006,0.700001 4.200012,2c1.099991,1.200001 1.599991,2.700001 1.5,4.299999c0.099991,1.700001 -0.600021,3.099998 -1.900009,4.299999z" id="svg_22"/>
  </g>
 </g>
</svg>
